<?xml version="1.0" encoding="UTF-8"?>
<svg width="700pt" height="700pt" version="1.1" viewBox="0 0 700 700" xmlns="http://www.w3.org/2000/svg" xmlns:xlink="http://www.w3.org/1999/xlink">
 <defs>
  <symbol id="x" overflow="visible">
   <path d="m0.10938 0h-0.03125-0.015625c-0.011719 0-0.027344-0.0039062-0.046875-0.015625-0.011719-0.0078125-0.015625-0.023438-0.015625-0.046875 0-0.0078125 0.0039062-0.019531 0.015625-0.03125 0.019531-0.019531 0.035156-0.03125 0.046875-0.03125 0.0078125 0 0.015625 0.007812 0.015625 0.015625h0.03125v0.03125c-0.011719-0.0078125-0.023438-0.015625-0.03125-0.015625-0.011719 0-0.023438 0.0078125-0.03125 0.015625v0.015625 0.03125c0.0078125 0.011719 0.019531 0.015625 0.03125 0.015625 0.0078125-0.0078125 0.019531-0.015625 0.03125-0.015625z"/>
  </symbol>
  <symbol id="c" overflow="visible">
   <path d="m0.078125-0.0625h-0.015625c-0.011719 0-0.015625 0.0078125-0.015625 0.015625v0.046875h-0.03125v-0.09375h0.03125v0.015625l0.015625-0.015625h0.015625z"/>
  </symbol>
  <symbol id="a" overflow="visible">
   <path d="m0.09375-0.046875v0.015625h-0.0625v0.015625h0.03125 0.015625c0.0078125 0 0.015625-0.0039062 0.015625-0.015625v0.03125h-0.015625-0.015625-0.046875c-0.011719-0.0078125-0.015625-0.023438-0.015625-0.046875 0-0.0078125 0.0039062-0.019531 0.015625-0.03125 0.0078125-0.0078125 0.019531-0.015625 0.03125-0.015625 0.019531 0 0.03125 0.0078125 0.03125 0.015625 0.0078125 0.011719 0.015625 0.023438 0.015625 0.03125zm-0.015625 0c0-0.0078125-0.0078125-0.015625-0.015625-0.015625h-0.015625-0.015625v0.015625z"/>
  </symbol>
  <symbol id="b" overflow="visible">
   <path d="m0.046875-0.046875-0.015625 0.015625v0.015625h0.015625 0.015625v-0.015625-0.015625zm0.046875 0v0.046875h-0.03125v-0.015625c0 0.011719-0.0078125 0.015625-0.015625 0.015625h-0.015625-0.015625c-0.011719-0.0078125-0.015625-0.019531-0.015625-0.03125 0-0.0078125 0.0039062-0.015625 0.015625-0.015625h0.03125 0.015625v-0.015625h-0.015625-0.03125v-0.015625c0-0.0078125 0.0039062-0.015625 0.015625-0.015625h0.015625c0.019531 0 0.03125 0.0078125 0.03125 0.015625 0.0078125 0.011719 0.015625 0.023438 0.015625 0.03125z"/>
  </symbol>
  <symbol id="e" overflow="visible">
   <path d="m0.046875-0.10938v0.015625h0.03125v0.03125h-0.03125v0.03125 0.015625h0.015625v0.015625h-0.015625-0.03125v-0.03125-0.03125h-0.015625v-0.03125h0.015625v-0.015625z"/>
  </symbol>
  <symbol id="i" overflow="visible">
   <path d="m0.078125-0.078125v-0.046875h0.015625v0.125h-0.015625v-0.015625c-0.011719 0.011719-0.023438 0.015625-0.03125 0.015625h-0.03125c-0.011719-0.0078125-0.015625-0.023438-0.015625-0.046875 0-0.0078125 0.0039062-0.019531 0.015625-0.03125 0.0078125-0.0078125 0.019531-0.015625 0.03125-0.015625v0.015625h0.03125zm-0.03125 0.0625h0.015625c0.0078125-0.0078125 0.015625-0.019531 0.015625-0.03125h-0.015625c0-0.0078125-0.0078125-0.015625-0.015625-0.015625l-0.015625 0.015625v0.03125h0.015625z"/>
  </symbol>
  <symbol id="m" overflow="visible">
   <path d="m0.0625-0.015625c0.0078125-0.0078125 0.015625-0.019531 0.015625-0.03125h-0.015625v-0.015625c-0.011719 0-0.015625 0.0078125-0.015625 0.015625v0.03125h0.015625zm-0.015625-0.0625 0.015625-0.015625c0.019531 0 0.03125 0.0078125 0.03125 0.015625 0.007812 0.011719 0.015625 0.023438 0.015625 0.03125 0 0.023438-0.007813 0.039062-0.015625 0.046875h-0.03125-0.015625v-0.015625 0.015625h-0.03125v-0.125h0.03125z"/>
  </symbol>
  <symbol id="h" overflow="visible">
   <path d="m0-0.09375h0.03125l0.015625 0.0625 0.03125-0.0625h0.03125l-0.046875 0.09375c0 0.0078125-0.0078125 0.015625-0.015625 0.015625 0 0.0078125-0.0078125 0.015625-0.015625 0.015625h-0.015625v-0.015625h0.015625s0.0039062-0.0078125 0.015625-0.015625z"/>
  </symbol>
  <symbol id="l" overflow="visible">
   <path d="m0.0625-0.09375c-0.011719 0-0.015625 0.0078125-0.015625 0.015625v0.015625 0.03125c0 0.011719 0.0039062 0.015625 0.015625 0.015625 0.0078125 0 0.015625-0.0039062 0.015625-0.015625 0.0078125-0.0078125 0.015625-0.019531 0.015625-0.03125 0-0.0078125-0.0078125-0.015625-0.015625-0.015625 0-0.0078125-0.0078125-0.015625-0.015625-0.015625zm0-0.03125c0.019531 0 0.035156 0.007812 0.046875 0.015625 0.007813 0.011719 0.015625 0.027344 0.015625 0.046875 0 0.023438-0.007812 0.039062-0.015625 0.046875-0.011719 0.011719-0.027344 0.015625-0.046875 0.015625-0.011719 0-0.027344-0.0039062-0.046875-0.015625-0.011719-0.0078125-0.015625-0.023438-0.015625-0.046875 0-0.019531 0.0039062-0.035156 0.015625-0.046875 0.019531-0.007813 0.035156-0.015625 0.046875-0.015625z"/>
  </symbol>
  <symbol id="w" overflow="visible">
   <path d="m0.015625-0.125h0.03125v0.125h-0.03125z"/>
  </symbol>
  <symbol id="k" overflow="visible">
   <path d="m0.015625-0.125h0.03125v0.078125l0.03125-0.046875h0.03125l-0.046875 0.046875 0.046875 0.046875h-0.03125l-0.03125-0.03125v0.03125h-0.03125z"/>
  </symbol>
  <symbol id="g" overflow="visible">
   <path d="m0.078125-0.078125v0.015625h-0.015625-0.015625-0.015625v0.015625h0.015625 0.03125c0.0078125 0 0.015625 0.0078125 0.015625 0.015625 0 0.011719-0.0078125 0.023438-0.015625 0.03125h-0.03125-0.03125v-0.03125 0.015625h0.03125c0.0078125 0 0.015625-0.0039062 0.015625-0.015625h-0.015625-0.046875v-0.03125c0-0.0078125 0.0039062-0.015625 0.015625-0.015625 0.0078125-0.0078125 0.019531-0.015625 0.03125-0.015625h0.015625c0.0078125 0 0.015625 0.0078125 0.015625 0.015625z"/>
  </symbol>
  <symbol id="f" overflow="visible">
   <path d="m0.10938-0.046875v0.046875h-0.03125v-0.046875c0-0.0078125-0.0078125-0.015625-0.015625-0.015625-0.011719 0-0.015625 0.0078125-0.015625 0.015625v0.046875h-0.03125v-0.09375h0.03125v0.015625l0.015625-0.015625c0.0078125 0 0.019531 0.0078125 0.03125 0.015625 0.007812 0.011719 0.015625 0.023438 0.015625 0.03125z"/>
  </symbol>
  <symbol id="j" overflow="visible">
   <path d="m0.015625-0.10938h0.046875c0.019531 0 0.03125 0.007813 0.03125 0.015625 0.007812 0 0.015625 0.0078125 0.015625 0.015625 0 0.011719-0.007813 0.023438-0.015625 0.03125h-0.03125-0.015625v0.046875h-0.03125zm0.03125 0.015625v0.03125h0.015625c0.0078125 0 0.015625-0.0039062 0.015625-0.015625 0-0.0078125-0.0078125-0.015625-0.015625-0.015625z"/>
  </symbol>
  <symbol id="d" overflow="visible">
   <path d="m0.046875-0.0625h-0.015625v0.015625 0.03125h0.015625 0.015625c0.0078125-0.0078125 0.015625-0.019531 0.015625-0.03125 0-0.0078125-0.0078125-0.015625-0.015625-0.015625h-0.015625zm0-0.03125c0.019531 0 0.035156 0.0078125 0.046875 0.015625 0.007812 0.011719 0.015625 0.023438 0.015625 0.03125 0 0.023438-0.007813 0.039062-0.015625 0.046875h-0.046875-0.03125c-0.011719-0.0078125-0.015625-0.023438-0.015625-0.046875 0-0.0078125 0.0039062-0.019531 0.015625-0.03125 0.0078125-0.0078125 0.019531-0.015625 0.03125-0.015625z"/>
  </symbol>
  <symbol id="v" overflow="visible">
   <path d="m0-0.09375h0.03125l0.015625 0.0625 0.03125-0.0625h0.03125l-0.046875 0.09375h-0.03125z"/>
  </symbol>
  <symbol id="u" overflow="visible">
   <path d="m0.015625-0.09375h0.03125v0.09375h-0.03125zm0-0.03125h0.03125v0.03125h-0.03125z"/>
  </symbol>
  <symbol id="t" overflow="visible">
   <path d="m0.0625-0.125v0.015625h-0.015625v0.015625h0.015625v0.03125h-0.015625v0.0625h-0.03125v-0.0625h-0.015625v-0.03125h0.015625v-0.015625c0.0078125-0.007813 0.019531-0.015625 0.03125-0.015625z"/>
  </symbol>
  <symbol id="s" overflow="visible">
   <path d="m0.09375-0.078125c0.007812-0.0078125 0.019531-0.015625 0.03125-0.015625 0.007812 0 0.015625 0.0078125 0.015625 0.015625 0.007813 0.011719 0.015625 0.023438 0.015625 0.03125v0.046875h-0.03125v-0.046875-0.015625h-0.015625s-0.007813 0.0078125-0.015625 0.015625v0.046875h-0.03125v-0.046875-0.015625c-0.011719 0-0.015625 0.0078125-0.015625 0.015625v0.046875h-0.03125v-0.09375h0.03125v0.015625l0.015625-0.015625c0.0078125 0 0.015625 0.0078125 0.015625 0.015625h0.015625z"/>
  </symbol>
  <symbol id="r" overflow="visible">
   <path d="m0.10938-0.046875v0.046875h-0.03125v-0.046875c0-0.0078125-0.0078125-0.015625-0.015625-0.015625-0.011719 0-0.015625 0.0078125-0.015625 0.015625v0.046875h-0.03125v-0.125h0.03125v0.046875l0.015625-0.015625c0.0078125 0 0.019531 0.0078125 0.03125 0.015625 0.007812 0.011719 0.015625 0.023438 0.015625 0.03125z"/>
  </symbol>
  <symbol id="q" overflow="visible">
   <path d="m0.015625-0.10938h0.03125l0.046875 0.078125v-0.078125h0.03125v0.10938h-0.046875l-0.03125-0.078125v0.078125h-0.03125z"/>
  </symbol>
  <symbol id="p" overflow="visible">
   <path d="m0.015625-0.03125v-0.0625h0.03125v0.015625 0.015625 0.015625 0.015625 0.015625h0.015625c0.0078125-0.0078125 0.015625-0.019531 0.015625-0.03125v-0.046875h0.015625v0.09375h-0.015625v-0.015625c-0.011719 0.011719-0.023438 0.015625-0.03125 0.015625h-0.03125v-0.03125z"/>
  </symbol>
  <symbol id="o" overflow="visible">
   <path d="m0.015625-0.09375h0.03125v0.09375c0 0.0078125-0.0078125 0.015625-0.015625 0.015625 0 0.0078125-0.011719 0.015625-0.03125 0.015625v-0.015625c0.0078125 0 0.015625-0.0078125 0.015625-0.015625zm0-0.03125h0.03125v0.03125h-0.03125z"/>
  </symbol>
  <symbol id="n" overflow="visible">
   <path d="m0.078125-0.078125v0.015625h-0.015625c-0.011719 0-0.023438 0.0078125-0.03125 0.015625v0.03125h0.03125c0.0078125 0 0.015625-0.0039062 0.015625-0.015625v0.03125h-0.015625-0.046875c-0.011719-0.0078125-0.015625-0.023438-0.015625-0.046875 0-0.0078125 0.0039062-0.019531 0.015625-0.03125 0.0078125-0.0078125 0.023438-0.015625 0.046875-0.015625 0.0078125 0 0.015625 0.0078125 0.015625 0.015625z"/>
  </symbol>
 </defs>
 <g>
  <path d="m354.52 461.96c-1.1445-0.44531-1.7148-1.7461-1.2695-2.8906 0.44531-1.1445 1.7461-1.7148 2.8906-1.2695 1.4922 0.57031 3.5547 0.69922 5.6211 0.44531 2.1289-0.25391 4.1602-0.89062 5.6211-1.8398 1.0469-0.66797 2.4141-0.38281 3.1094 0.63672 0.66797 1.0469 0.38281 2.4141-0.63672 3.1094-2.0312 1.332-4.793 2.2227-7.5547 2.5391-2.7305 0.31641-5.5547 0.12891-7.7773-0.73047zm20.223-60.703c-1.2383-0.19141-2.0625-1.3008-1.9062-2.5391 0.19141-1.2383 1.3008-2.0625 2.5391-1.9062 2.4766 0.38281 4.3164 0.31641 6.0625-0.0625 1.7461-0.41406 3.5234-1.207 5.7461-2.3164 1.1094-0.53906 2.4453-0.09375 3.0156 1.0156 0.53906 1.1094 0.09375 2.4453-1.0156 3.0156-2.4766 1.2383-4.5078 2.1602-6.7617 2.668-2.2852 0.50781-4.6367 0.60156-7.6836 0.12891zm30.891-17.27c-1.2383 0.12891-2.3164-0.79297-2.4453-2-0.12891-1.2383 0.79297-2.3164 2-2.4453 2.4766-0.22266 4.2852-0.73047 5.8398-1.5234 1.6172-0.82422 3.1445-2 5.0469-3.6211 0.95312-0.79297 2.3477-0.66797 3.1445 0.25391 0.79297 0.95312 0.66797 2.3477-0.25391 3.1445-2.1289 1.8086-3.875 3.1758-5.9375 4.1914-2.0938 1.0469-4.3477 1.6836-7.4297 1.9688zm25.777-18.254c-1.2383 0.0625-2.2852-0.85547-2.3828-2.0938-0.0625-1.2383 0.85547-2.2852 2.0938-2.3828 2.3164-0.16016 4.668-0.66797 6.793-1.5859 1.9688-0.82422 3.7461-1.9688 5.1445-3.3984 0.85547-0.89063 2.2852-0.89063 3.1758-0.03125 0.89062 0.85547 0.89062 2.2852 0.03125 3.1758-1.8086 1.875-4.0938 3.332-6.6055 4.4141-2.6016 1.1094-5.4297 1.7461-8.2539 1.9375zm-66.289 6.8906c-0.16016-1.2383 0.69922-2.3477 1.9062-2.5078 1.2383-0.16016 2.3477 0.69922 2.5078 1.9062 0.57031 4.1289 3.1094 6.4766 6 7.207 1.207 0.31641 2.4766 0.38281 3.7148 0.16016 1.207-0.19141 2.3828-0.63672 3.3984-1.3008 2.3828-1.5547 3.875-4.4766 3.1094-8.5703-0.22266-1.207 0.57031-2.3828 1.7773-2.6016 1.207-0.22266 2.3828 0.57031 2.6016 1.7773 1.1758 6.1602-1.2695 10.637-5.0156 13.145-1.5547 1.0156-3.332 1.6836-5.1758 2-1.8398 0.28516-3.7461 0.22266-5.5547-0.25391-4.5078-1.1758-8.4141-4.7305-9.3008-10.922zm-19.145 56.891c-0.12891-1.2383 0.76172-2.3164 2-2.4453 1.2383-0.12891 2.3164 0.76172 2.4453 2 0.34766 3.4922 2.3477 5.5234 4.7617 6.3164 1.0469 0.34766 2.2227 0.44531 3.3672 0.34766 1.1758-0.09375 2.3164-0.41406 3.332-0.92188 2.4141-1.207 4.1914-3.5859 4-6.9219-0.0625-1.2383 0.89062-2.2852 2.0938-2.3477 1.2383-0.0625 2.2852 0.89062 2.3477 2.0938 0.28516 5.3672-2.5703 9.1758-6.4766 11.145-1.5547 0.79297-3.2383 1.2383-4.9531 1.3984-1.7148 0.16016-3.4609-0.03125-5.1133-0.57031-4-1.3008-7.2695-4.5703-7.8398-10.098zm-35.273 87.18c1.5547-1.2383 3.5547-2.2227 5.6836-2.7617 1.9375-0.50781 4-0.66797 6.0312-0.34766 2.0938 0.31641 4.0938 1.1445 5.8086 2.6016 3.6523 3.1758 5.7148 9.2695 3.5547 19.684-0.53906 2.6016-1.8086 4.8242-3.4609 6.5391 2.8242-0.95312 5.5547-2.6992 7.7148-5.1133 1.7461-1.9375 3.1445-4.3164 3.9375-7.0469 1.1094-3.9062 1.6172-7.7773 1.7148-11.684 0.09375-3.9688-0.22266-7.9375-0.73047-11.938-0.34766-2.7617-0.89063-6-1.4609-9.4297-2.4453-14.637-5.4297-32.352 2.5078-41.969-0.98437-6.668-1.5859-13.145-2.0625-18.508l-0.09375-1.0781c-0.22266-2.3477-0.38281-4.4141-0.47656-6.0938-0.12891-1.8086-0.16016-3.2695-0.16016-4.3477 0-6.9531 4.2852-12.859 10-16.254 2.5391-1.5234 5.3672-2.5391 8.1914-2.9219 2.0938-0.28516 4.1602-0.22266 6.1914 0.22266-0.60156-3.6211-1.2695-8.2227-1.9375-13.016-0.69922-5.0156-1.4609-10.223-2.2227-14.793-1.2695-7.6523-0.50781-13.652 2-18.129 2.7305-4.8555 7.3672-7.8086 13.523-9.0469 2.2539-0.44531 4.3828-0.57031 6.3164-0.31641-0.76172-2.9219-1.2383-4.5703-1.7461-6.4453-0.31641-1.1445-0.66797-2.3828-1.3633-4.9531-2.4766-9.0781 0.98438-16.352 6.5391-20.637 2.0625-1.5859 4.4141-2.7617 6.8242-3.4609 2.4766-0.73047 5.0156-0.95312 7.4609-0.66797 3.5859 0.41406 6.9531 1.9375 9.4922 4.6992 1.0156-3.207 2.9219-5.9062 5.3984-7.9375 2.0312-1.6836 4.4453-2.8555 6.9844-3.4609 2.5703-0.60156 5.3008-0.60156 7.9375 0.16016 5.332 1.4922 10.316 5.875 13.082 14.16 0.28516 0.89062 0.73047 2.0938 1.1758 3.3984 0.60156 1.7148 1.2695 3.5859 1.9375 5.7461 0.73047 2.2852 1.9375 5.6523 3.3672 9.6836 6.1602 17.238 16.477 46.258 16.477 68.004 0 10.223-2.1914 18.891-7.9688 24.223 0.73047 5.1445 6.8906 8.9844 13.59 10.539 2.6992 0.63672 5.4922 0.85547 8.0312 0.66797 2.4141-0.19141 4.6016-0.79297 6.2227-1.8398l0.09375-0.0625c-2.9844-2.2227-5.6523-5.6836-7.3984-9.5859-1.2383-2.7305-2.0625-5.6523-2.2852-8.5391-0.22266-2.9844 0.16016-5.9375 1.3984-8.5391 1.332-2.8242 3.6211-5.2383 7.0469-6.793 0.0625-0.03125 0.12891-0.0625 0.22266-0.09375-0.44531-5.3984-0.60156-9.5859-0.57031-10.699 0.38281-13.176-1.9688-18.031-4.2852-22.797-1.332-2.7617-2.668-5.4922-3.5547-9.5547-0.25391-0.0625-0.53906-0.12891-0.79297-0.22266-2-0.60156-3.875-1.7461-5.6211-3.2383-4.3828-3.7461-7.9375-9.9688-9.7148-16.191-5.2383-18.383-2.6992-27.59-0.44531-35.715 1.9062-6.8906 3.5859-12.953-0.82422-24.066-6.3164-15.969-11.43-33.051-12.352-49.812-0.92188-16.953 2.4453-33.559 13.176-48.445 7.0469-9.7461 17.367-21.398 32.383-35.207 14.953-13.746 34.637-29.684 60.449-48.035 1.0156-0.73047 2.4141-0.47656 3.1094 0.53906 0.73047 1.0156 0.47656 2.4141-0.53906 3.1094-25.621 18.223-45.176 34.035-60.004 47.684-14.793 13.59-24.922 25.016-31.781 34.512-10.062 13.938-13.207 29.59-12.316 45.621 0.22266 4.0938 0.69922 8.2227 1.4297 12.316 2.8906 11.844 11.684 22.477 20.445 33.082 13.207 15.969 26.445 31.969 21.523 53.273-0.69922 3.0781-0.98438 6.668-1.2383 10.098-0.16016 2.1602-0.31641 4.3164-0.60156 6.3164-0.12891 1.1445-0.31641 2.1914-0.57031 3.1445-0.53906 2.3828-1.3633 4.4766-2.7305 6.0625-2.3477 2.7305-4.8242 4.3477-7.3008 5.0781-0.34766 0.09375-0.69922 0.19141-1.0469 0.25391 0.76172 3.0156 1.8398 5.2383 2.9531 7.4609 2.5391 5.2695 5.1445 10.605 4.6992 24.891-0.03125 1.5547 0.34766 9.7148 1.3984 18.828 0.63672 5.4297 1.4922 11.176 2.6016 15.969 1.4922 6.2852-0.60156 10.57-4.5391 13.145-2.2852 1.4922-5.1758 2.3164-8.2852 2.5703-2.9844 0.25391-6.2539-0.03125-9.3984-0.76172-7.4297-1.7461-14.352-6.0625-16.445-12.098-3.0156 1.6523-6.7305 2.668-11.207 2.8906-0.66797 7.2383-5.0156 12.508-10.508 15.715-2.6016 1.5234-5.4922 2.5703-8.3164 3.1445-2.8555 0.57031-5.6836 0.63672-8.2227 0.22266-2.2539-0.38281-4.2852-1.1445-5.875-2.3477-1.2695 4.6367-4.1914 8.1914-7.8086 10.445-2.1602 1.3633-4.6016 2.2539-7.0469 2.6367-2.4766 0.38281-5.0156 0.28516-7.3672-0.38281-2.2539-0.63672-4.3477-1.7461-6.1289-3.3672-0.53906 5.6523-4.0625 10.699-8.7617 13.844-2.3164 1.5547-4.8906 2.6367-7.5859 3.1094-2.7305 0.50781-5.5234 0.34766-8.1914-0.57031-5.332-1.875-10-6.8594-12.062-16.223-0.25391-1.1094-0.47656-2.2227-0.69922-3.332-3.5547 8.793-1.2383 22.699 0.76172 34.445 0.57031 3.3672 1.1094 6.5703 1.4922 9.5859 0.53906 4.2227 0.85547 8.4141 0.76172 12.605-0.09375 4.2852-0.63672 8.5391-1.875 12.793-0.98438 3.4297-2.7305 6.3828-4.9219 8.8242-2.6992 2.9844-6.0938 5.1445-9.5859 6.3477-3.5859 1.207-7.332 1.4297-10.605 0.47656-1.9375-0.57031-3.7148-1.5234-5.2695-2.8906-0.63672-0.57031-1.1758-1.332-1.6172-2.1914-0.82422-1.2695-1.4297-2.8242-1.8086-4.7305-0.03125-0.12891-0.03125-0.25391-0.03125-0.41406-0.38281-1.5547-0.66797-3.0469-0.92188-4.2852-0.09375-0.53906-0.19141-1.0156-0.31641-1.5547-1.207-5.4609-2.2852-10.477-3.2695-15.176-8.7305-5.3672-19.145-36.73-25.176-56.098-0.0625-0.0625-0.12891-0.12891-0.16016-0.22266-7.9375-12.031-12.793-17.684-20.223-26.289-1.875-2.1602-3.9062-4.5078-5.9375-6.9219-4.8555-5.7148-6.7305-11.523-6.6992-17.43-9.3008-6.6367-14.414-13.113-15.715-20.762-1.332-7.7148 1.3008-16.383 7.3984-27.367 0.89063-1.6172 2.6016-6.1914 4.3828-11.461 2.1602-6.3164 4.3828-13.461 5.4922-17.492-1.9688-8.5078-3.4922-15.777-4.5703-22.129-1.0781-6.5078-1.7148-12.031-1.7773-16.922v-0.31641c-1.5547-52.828-64.891-144.64-96.102-189.91l-1.5859-2.3164c-0.69922-1.0156-0.44531-2.4141 0.57031-3.1094 1.0156-0.69922 2.4141-0.44531 3.1094 0.57031l1.5859 2.3164c28 40.574 81.594 118.29 94.195 173.09 0.25391-1.5547 0.53906-3.1758 0.82422-4.9219 0.79297-4.6367 1.6836-10.062 2.668-16.891 0.16016-1.2383 1.3008-2.0625 2.5391-1.9062 1.2383 0.16016 2.0625 1.3008 1.9062 2.5391-0.98438 6.793-1.9062 12.285-2.6992 16.984-1.6172 9.5547-2.668 15.809-2.5391 23.398v0.37891c0.09375 4.6016 0.66797 9.9062 1.7461 16.254 0.69922 4.1289 1.5859 8.668 2.6992 13.715 3.9688-13.684 8.3828-25.875 13.875-37.715 6.6367-14.316 14.859-28.098 25.812-43.398 7.9375-11.078 14.73-22.699 20.668-34.129 5.9375-11.461 11.016-22.699 15.492-32.922 2.793-6.3477 6.5703-13.523 11.078-21.238-19.715-15.238-35.113-29.238-48.352-45.812-13.367-16.73-24.477-36.004-35.559-61.652-0.47656-1.1445 0.03125-2.4453 1.1758-2.9531 1.1445-0.47656 2.4453 0.03125 2.9531 1.1758 10.922 25.305 21.844 44.258 34.922 60.637 12.891 16.098 27.906 29.812 47.176 44.734 19.621-32.543 51.082-73.781 75.973-106.39 8.6055-11.27 16.414-21.523 22.605-29.875 0.73047-0.98438 2.1289-1.207 3.1094-0.47656 0.98438 0.73047 1.207 2.1289 0.47656 3.1094-6.3164 8.5703-14.098 18.762-22.637 29.938-31.781 41.652-74.352 97.434-88.832 130.58-4.5078 10.285-9.6211 21.621-15.59 33.176-6.0312 11.621-12.922 23.461-20.984 34.668-10.793 15.047-18.891 28.637-25.398 42.637-6.5078 14.031-11.461 28.574-16 45.559v0.0625c-1.0781 4-3.4297 11.621-5.7148 18.32-1.875 5.4297-3.6836 10.285-4.7305 12.191-5.207 9.3672-7.6836 16.699-7.0781 22.984 0.16016 0.22266 0.25391 0.44531 0.31641 0.73047 0.34766 1.332 1.9062 2.9844 3.8398 4.3477 1.9688 1.3984 4.2539 2.3828 6 2.3828 1.2383 0 2.2227 0.98438 2.2227 2.2227 0 1.2383-0.98438 2.2227-2.2227 2.2227-1.875 0-3.9688-0.63672-5.9688-1.6523 1.9062 2.5078 4.5078 4.9844 7.7461 7.4922 1.3984-8.2227 5.7773-16.668 10.254-25.305 3.3008-6.3477 6.668-12.824 8.793-19.238 0.85547-2.5703 1.9062-7.0781 2.793-11.492 0.19141-0.92188 0.34766-1.8086 0.50781-2.6992v-0.0625c0.79297-4.1602 1.332-7.7461 1.332-8.8594 0-1.4922-0.16016-4.3828-0.60156-7.4297-0.31641-2.0938-0.76172-4.2539-1.3633-6.0625-0.38281-1.1758 0.22266-2.4453 1.3984-2.8242 1.1758-0.38281 2.4453 0.22266 2.8242 1.3984 0.69922 2.0938 1.207 4.5391 1.5547 6.8594 0.12891 0.85547 0.22266 1.6836 0.31641 2.4766 0.41406-0.89062 0.85547-1.7461 1.2695-2.5391 2.7305-5.207 5.5234-8.8594 7.9375-10.891 0.95312-0.79297 2.3477-0.63672 3.1445 0.31641 0.79297 0.95312 0.63672 2.3477-0.31641 3.1445-2 1.6523-4.3828 4.8555-6.8242 9.4922-2.1914 4.1602-4.3828 9.4922-6.3164 15.906-0.16016 0.85547-0.34766 1.7773-0.50781 2.668-0.89063 4.4766-2 9.1445-2.9219 12-2.2852 6.8242-5.7148 13.43-9.0469 19.906-4.0312 7.7773-7.9688 15.336-9.4609 22.605v0.38281c0.22266 4.668 2.4453 7.8086 5.207 9.7773 2.8242 2.0312 6.1289 2.8906 8.4141 2.8906h0.41406c1.2383-0.0625 2.2852 0.89063 2.3477 2.1289s-0.89062 2.2852-2.1289 2.3477h-0.63672c-3.0469 0-7.3984-1.0781-11.016-3.7148-0.85547-0.63672-1.6836-1.332-2.4766-2.1289 0.82422 2.9844 2.3477 5.9062 4.7305 8.7305 2.3164 2.7305 4.1602 4.8906 5.9062 6.8906 4.793 5.5547 8.5391 9.9062 12.73 15.523-4.6992-15.746-2.7305-19.238 4.793-32.605 0.82422-1.4922 1.7461-3.0781 2.1289-3.8086 0.89063-1.5859 1.9688-3.4922 3.1445-5.4922 3.0781-5.332 6.6055-11.43 9.4922-17.777 0-0.03125 0.03125-0.0625 0.03125-0.12891l0.89062-2.0625 1.0156-2.3477c3.8086-9.5234 5.6523-19.207 2-27.113-0.50781-1.1094-0.03125-2.4453 1.0781-2.9531 1.1094-0.50781 2.4453-0.03125 2.9531 1.0781 1.5859 3.4609 2.3164 7.1445 2.3828 10.953 3.5234-6.6055 7.4922-12.824 12-17.336 0.89062-0.89062 2.2852-0.89062 3.1758 0s0.89062 2.2852 0 3.1758c-8.1602 8.1602-14.668 22.73-19.746 34.512-0.50781 1.207-1.0156 2.4141-1.5547 3.6211l-0.12891 0.28516c-0.03125 0.0625-0.0625 0.12891-0.09375 0.22266-2.9844 6.4766-6.5391 12.699-9.6836 18.129-1.0781 1.875-2.0938 3.6211-3.1094 5.4609-1.1094 2-1.6172 2.9219-2.1289 3.8086-7.0781 12.605-8.6992 15.461-3.7773 31.207l1.4297 4.668c4.4141 14.477 13.59 44.48 21.43 56.32-0.85547-4.3477-1.5859-8.5391-2.2539-12.73-1.7461-10.984-2.8242-21.969-3.332-36.191-0.53906-14.605 10.891-32.414 17.621-42.227 0.03125-0.0625 0.0625-0.09375 0.09375-0.16016 0.60156-0.89062 1.207-1.7148 1.7148-2.4766 0.69922-1.0156 1.3008-1.875 1.8086-2.668 2.4141-3.5859 3.7773-7.5547 4.5078-11.27 1.207-6 0.79297-11.367 0.47656-13.875-0.16016-1.2383 0.69922-2.3477 1.9375-2.5078 1.2383-0.16016 2.3477 0.69922 2.5078 1.9375 0.31641 2.5078 0.73047 7.5859-0.16016 13.367 3.9375-5.3672 7.9375-10.73 11.398-14.859 0.79297-0.95312 2.1914-1.0781 3.1445-0.28516 0.95312 0.79297 1.0781 2.1914 0.28516 3.1445-4.6992 5.6211-10.73 13.969-16.098 21.367-2.9531 4.0625-5.6836 7.8398-7.9375 10.793-6.4453 9.4297-17.301 26.352-16.828 39.559 0.50781 14.062 1.5547 24.859 3.2695 35.652 1.1094 7.0781 2.5391 14.285 4.2539 22.445zm5.207 22.73c0.44531 0.76172 0.98438 1.3008 1.5859 1.6836 0.79297 0.50781 1.7148 0.69922 2.668 0.63672 1.0156-0.0625 2.0938-0.38281 3.1094-0.98438 1.9688-1.1445 3.6211-3.1758 4.1602-5.7773 1.7773-8.5391 0.41406-13.207-2.1289-15.43-1.0156-0.85547-2.2539-1.3633-3.5547-1.5547-1.3984-0.22266-2.8555-0.09375-4.2539 0.25391-2.8555 0.73047-5.2383 2.2852-5.6523 3.8086 0.53906 2.5703 1.1445 5.207 1.7461 8 0.0625 0.34766 0.19141 0.95312 0.31641 1.6836 0.41406 2.2539 1.0469 5.5859 2 7.6523zm-72.449-306.11c0.0625 1.2383-0.89062 2.2852-2.1289 2.3164-1.2383 0.0625-2.2852-0.89062-2.3164-2.1289-0.31641-6.9219-2.5703-17.176-6.0625-26.828-2.9531-8.2227-6.7617-15.906-10.953-20.605-0.82422-0.92188-0.73047-2.3164 0.19141-3.1445 0.92188-0.82422 2.3164-0.73047 3.1445 0.19141 4.6016 5.1445 8.6992 13.367 11.844 22.066 3.6211 10.031 5.9688 20.793 6.3164 28.129zm23.016 12.445c-0.41406 1.1758-1.6836 1.7773-2.8555 1.3984-1.1758-0.41406-1.7773-1.6836-1.3984-2.8555 2.8242-8.1914 6.9844-15.367 12.383-21.145 5.2695-5.6211 11.715-9.9062 19.145-12.445 1.1758-0.38281 2.4453 0.22266 2.8242 1.3984 0.38281 1.1758-0.22266 2.4453-1.3984 2.8242-6.7305 2.2852-12.539 6.1602-17.336 11.27-4.9531 5.2695-8.793 11.906-11.398 19.523zm217.73 168.23c-1.7148 1.0469-2.9219 2.4141-3.6523 4-0.89063 1.875-1.1445 4.0312-0.98438 6.2852 0.19141 2.3477 0.85547 4.793 1.9062 7.0469 1.4609 3.207 3.5859 6.0312 5.9375 7.7773 0.34766-1.3008 0.34766-2.8555-0.09375-4.6992-1.1758-4.9844-2.0625-10.891-2.6992-16.477-0.16016-1.332-0.28516-2.668-0.41406-3.9688zm-35.176-235.03c-0.69922 1.0156-2.0938 1.2695-3.1094 0.53906-1.0156-0.69922-1.2695-2.0938-0.53906-3.1094 1.0469-1.4922 2.2852-3.3008 3.5234-5.1133 8.793-12.762 17.145-24.922 34.352-37.398 1.0156-0.73047 2.4141-0.50781 3.1094 0.50781 0.73047 1.0156 0.50781 2.4141-0.50781 3.1094-16.574 12.031-24.73 23.875-33.273 36.32-1.0781 1.5859-2.1914 3.1758-3.5547 5.1445zm-55.559-65.336c-0.63672 1.0469-2 1.3984-3.0781 0.76172-1.0469-0.63672-1.3984-2-0.76172-3.0781 3.4609-5.7148 10.699-14.859 19.016-24.637 11.492-13.523 25.082-28.383 33.559-37.305 0.85547-0.89063 2.2539-0.92188 3.1758-0.0625 0.89063 0.85547 0.92188 2.2539 0.0625 3.1758-8.4141 8.8594-21.938 23.652-33.367 37.113-8.1914 9.6523-15.27 18.574-18.605 24.066zm95.816 220.27c-0.03125-0.03125-0.0625-0.09375-0.12891-0.12891-0.60156-0.66797-1.5234-1.2695-2.5703-1.6172-0.98438-0.31641-2.0312-0.38281-2.9531-0.03125-0.31641 0.12891-0.60156 0.31641-0.89062 0.53906-0.79297 0.69922-1.3008 2.4453-1.5234 4.8242-0.31641 3.1445-0.12891 7.1445 0.41406 11.367 0.60156 4.8242 1.6523 7.6523 2.793 8.8594 0.19141 0.19141 0.31641 0.28516 0.34766 0.28516s0.12891-0.09375 0.28516-0.22266c0.60156-0.60156 1.1445-1.6836 1.5547-3.1758 0.25391-1.0156 0.47656-2.1289 0.63672-3.332v-0.09375c0-0.03125 0-0.09375 0.03125-0.12891 0.25391-1.8398 0.41406-3.9062 0.57031-5.9688 0.28516-3.6211 0.57031-7.332 1.3633-10.762 0.03125-0.16016 0.0625-0.28516 0.09375-0.44531zm-7.8398 27.176c-0.09375-0.09375-0.16016-0.16016-0.25391-0.25391-1.7461-1.8086-3.2695-5.5234-4-11.398-0.57031-4.5391-0.76172-8.8906-0.41406-12.383 0.34766-3.4609 1.3008-6.1914 3.0156-7.7148 0.66797-0.60156 1.4297-1.0469 2.1914-1.3633 1.9375-0.76172 4.0625-0.66797 5.9375-0.0625 0.73047 0.22266 1.4297 0.53906 2.0625 0.92188 1.1094-16.574-10.16-30.223-21.43-43.875-4.1289-5.0156-8.2852-10-11.844-15.176 1.6523 5.1758 3.4922 10.285 5.4922 15.301 4.9531 12.508 3.0781 19.238 0.95312 26.922-2.0938 7.5859-4.4453 16.129 0.44531 33.305 1.5547 5.4609 4.6016 10.859 8.2852 14.031 1.3008 1.1094 2.668 1.9375 4.0312 2.3477 1.2695 0.38281 2.6016 0.44531 3.9375 0.0625 0.50781-0.16016 1.0469-0.38281 1.5859-0.66797zm-66.129-29.367c-0.38281-1.1758 0.22266-2.4453 1.3984-2.8242 1.1758-0.38281 2.4453 0.22266 2.8242 1.3984 0.76172 2.2539 2.8555 3.3672 5.1133 3.5547 1.0469 0.09375 2.0938-0.03125 3.1094-0.31641 0.98438-0.28516 1.9062-0.73047 2.668-1.332 1.5547-1.2383 2.4453-3.2383 1.7773-5.8398-0.31641-1.207 0.41406-2.4141 1.6172-2.6992 1.207-0.31641 2.4141 0.41406 2.6992 1.6172 1.1758 4.6016-0.44531 8.1602-3.3008 10.445-1.2383 0.98438-2.6992 1.7148-4.2227 2.1602-1.5234 0.44531-3.1094 0.60156-4.6992 0.47656-3.9062-0.31641-7.5547-2.4141-8.9844-6.5703zm26.699 70.48c-1.2383 0.0625-2.2852-0.85547-2.3477-2.0938-0.0625-1.2383 0.85547-2.2852 2.0938-2.3477 1.9375-0.12891 4.1289-0.66797 6.0938-1.5547 1.7148-0.76172 3.207-1.7461 4.0625-2.8906 0.76172-0.98438 2.1602-1.1445 3.1445-0.38281 0.98438 0.76172 1.1445 2.1602 0.38281 3.1445-1.332 1.7148-3.4297 3.1445-5.7773 4.2227-2.4453 1.0781-5.207 1.7773-7.6523 1.9375zm-29.746-75.879c0.03125 0.12891 0.03125 0.25391 0.03125 0.41406l0.0625 0.25391c1.8086 6.8906 5.0469 15.523 8.6367 25.051 3.7461 9.9688 7.875 20.891 11.145 31.969 1.7461 6 4.0625 15.492 6.0312 26 1.5234 8.0312 2.8242 16.668 3.5547 24.699 13.969-0.89062 18.637-11.461 18.637-25.398 0-21.016-10.16-49.559-16.223-66.543-1.3984-3.875-2.5391-7.1445-3.3984-9.8086-0.53906-1.7461-1.2695-3.7461-1.9062-5.5859-0.41406-1.1445-0.79297-2.2227-1.207-3.4609-2.2227-6.668-6.0312-10.16-10.031-11.27-1.9062-0.53906-3.875-0.53906-5.7461-0.09375-1.9062 0.44531-3.6836 1.332-5.1758 2.5391-3.0781 2.5391-5.0156 6.5703-4.4141 11.27zm-27.875 14.477c-0.28516-1.207 0.47656-2.4141 1.6836-2.668 1.207-0.28516 2.4141 0.47656 2.668 1.6836 0.66797 2.8906 3.0156 4.3828 5.7148 4.668 1.2383 0.12891 2.5078 0.03125 3.7461-0.28516 1.207-0.31641 2.3828-0.82422 3.3672-1.5547 2.1914-1.5859 3.5234-4.2227 2.5703-7.6211-0.34766-1.1758 0.34766-2.4141 1.5547-2.7617 1.1758-0.34766 2.4141 0.34766 2.7617 1.5547 1.5547 5.5547-0.63672 9.8438-4.2539 12.445-1.4609 1.0469-3.1445 1.8086-4.8906 2.2539-1.7461 0.44531-3.5859 0.60156-5.332 0.41406-4.4453-0.47656-8.4141-3.0469-9.5547-8.1289zm27.113 79.18c-1.2383-0.03125-2.2227-1.0469-2.1914-2.2852s1.0469-2.2227 2.2852-2.1914c2.1602 0.0625 5.332-0.19141 8.1602-1.4297 1.8398-0.79297 3.4922-2 4.5391-3.8086 0.60156-1.0781 2-1.4297 3.0469-0.82422 1.0781 0.60156 1.4297 2 0.82422 3.0469-1.6172 2.7617-4.0312 4.5391-6.668 5.6836-3.5234 1.5234-7.3984 1.8398-10.031 1.7773zm-15.523-53.367c0.09375 0.16016 0.16016 0.34766 0.22266 0.53906 0.09375 0.38281 0.19141 0.76172 0.28516 1.1758 0.25391 0.89062 0.47656 1.8086 0.69922 2.7617 0.03125 0.12891 0.03125 0.25391 0.0625 0.38281 1.0469 4.5078 2.1914 10.191 3.3008 16.254 1.207 6.6367 2.2852 13.684 2.9844 20.066 0.57031 5.2383 1.207 10.383 1.9062 15.27 0.69922 4.9219 1.3984 9.5859 2.0938 13.844l0.57031 3.4922c0.34766 2.1914 0.66797 4.2852 1.0156 6.1914 0.09375 0.19141 0.12891 0.38281 0.16016 0.57031 0.0625 0.34766 0.09375 0.69922 0.12891 1.0469 0.09375 0.44531 0.19141 0.89062 0.28516 1.3008 0.50781 2.3828 2.8242 3.8086 5.8086 4.3164 2 0.34766 4.2852 0.28516 6.6367-0.19141 2.3477-0.47656 4.7305-1.332 6.9219-2.6016 5.0781-2.9531 8.9219-8.0938 8.3164-15.336-0.69922-8.0938-2-16.793-3.5234-24.891-1.9375-10.316-4.1914-19.684-5.9375-25.559-3.207-10.922-7.3008-21.777-11.047-31.652-3.6211-9.6211-6.9219-18.352-8.793-25.492-1.4609-5.5547-5.3008-8.3164-9.5859-8.8242-1.875-0.22266-3.8398-0.03125-5.7148 0.50781-1.9062 0.53906-3.7461 1.4609-5.3672 2.7305-4.2539 3.2695-6.8906 8.8906-4.9531 15.938 0.44531 1.6836 0.95312 3.3672 1.3633 4.8906 0.66797 2.3477 1.2383 4.3477 2.3477 8.7305 0.03125 0.16016 0.0625 0.34766 0.0625 0.50781 1.0156 0.57031 2 1.2383 2.9219 2.0938 2.8555 2.6016 5.1445 6.5391 6.8242 11.969zm8.9844 82.258c-0.47656-2.3828-0.89062-5.0156-1.332-7.8086-0.12891-0.85547-0.28516-1.7461-0.57031-3.4609-0.69922-4.3477-1.4297-9.0469-2.1289-13.938-0.69922-4.9219-1.332-10.129-1.9062-15.398-0.66797-6.3164-1.7461-13.238-2.9219-19.746-1.3633-7.5547-2.8906-14.637-4.0938-19.461-1.4922-5.207-3.4297-8.8594-5.9062-11.078-2.6992-2.4453-6.1289-3.1445-10.352-2.3164-4.8555 0.98438-8.4453 3.207-10.477 6.8594-2 3.5859-2.5703 8.6055-1.4922 15.207 0.76172 4.5703 1.5234 9.875 2.2227 14.922 0.85547 6.1289 1.6836 11.906 2.4453 15.652 3.7461 2.3828 6.7305 6.5703 7.9688 13.047 2.2227 11.43 2.7305 20.098 3.2695 29.336 0.0625 1.1094 0.12891 2.2539 0.19141 3.3984 0.69922 5.8086 3.9688 9.0781 7.9062 10.191 1.7461 0.47656 3.6211 0.57031 5.4922 0.28516 1.875-0.28516 3.7148-0.98437 5.3984-2 4.0312-2.5391 6.9531-7.207 6.2852-13.684zm-29.492 5.6523v-0.16016c-0.0625-1.1445-0.12891-2.2852-0.19141-3.4297-0.50781-9.0469-1.0156-17.555-3.1758-28.73-1.207-6.1602-4.1914-9.6211-7.7773-11.016-1.9688-0.76172-4.1602-0.95312-6.3164-0.66797-2.2539 0.28516-4.4766 1.1094-6.5078 2.3164-4.4453 2.6367-7.8086 7.1758-7.8086 12.445 0 1.0781 0.0625 2.4766 0.16016 4.0938 0.12891 1.8086 0.28516 3.8398 0.47656 5.9688l0.09375 1.0781c0.50781 5.5547 1.1445 12.285 2.1914 19.145 0 0.0625 0.03125 0.12891 0.03125 0.22266 0.44531 2.8906 0.98438 5.8086 1.6172 8.668 1.6836 7.6211 5.207 11.59 9.1758 12.984 1.9062 0.66797 3.9375 0.76172 5.9375 0.38281 2.0625-0.38281 4.0625-1.2383 5.875-2.4453 4.2227-2.8242 7.2383-7.5547 6.8242-12.539-0.22266-2.793-0.41406-5.5547-0.57031-8.2539zm-12.285-140.61c0.25391-1.207 1.4297-1.9688 2.668-1.7148 1.207 0.25391 1.9688 1.4297 1.7148 2.668-2.6016 12.316-6.6992 20.414-11.809 30.445-0.98438 1.9375-2 3.9688-3.0469 6.0625-0.53906 1.1094-1.875 1.5547-2.9844 1.0156-1.1094-0.53906-1.5547-1.875-1.0156-2.9844 1.0781-2.1602 2.0938-4.1602 3.0781-6.0938 4.9531-9.7773 8.9219-17.621 11.43-29.367zm-27.145-30.891c0.47656-1.1445 1.7773-1.6836 2.9219-1.207 1.1445 0.47656 1.6836 1.7773 1.207 2.9219 0 0.03125-4.7305 11.523-10.16 20.32-5.332 8.6992-13.43 19.461-13.461 19.492-0.73047 0.98438-2.1289 1.1758-3.1094 0.44531-0.98438-0.73047-1.1758-2.1289-0.44531-3.1094 0.03125-0.03125 7.9062-10.508 13.207-19.176 5.2383-8.5391 9.8438-19.652 9.8438-19.684zm-30.035-15.938c0.44531-1.1445 1.7461-1.7148 2.8906-1.2695 1.1445 0.44531 1.7148 1.7461 1.2695 2.8906-2 5.207-5.4297 11.844-9.3008 18.031-3.5547 5.7148-7.5547 11.113-11.176 14.73-0.89062 0.89063-2.2852 0.89063-3.1758 0-0.89063-0.89062-0.89063-2.2852 0-3.1758 3.3984-3.3984 7.1445-8.5078 10.539-13.938 3.7461-6 7.0469-12.352 8.9531-17.27zm-10.824 177.6c1.207 0.22266 2.0312 1.3633 1.8086 2.6016-0.22266 1.207-1.3633 2.0312-2.6016 1.8086-3.0469-0.53906-6.5391-2.4453-9.3672-4.9531-2.6992-2.3828-4.8242-5.3672-5.4297-8.3164-0.25391-1.207 0.50781-2.3828 1.7148-2.668 1.207-0.25391 2.3828 0.50781 2.668 1.7148 0.41406 1.9688 2 4.0938 4.0312 5.9062 2.2227 1.9688 4.9219 3.4922 7.1758 3.9062zm30.098 18.828c1.2383-0.16016 2.3477 0.69922 2.5078 1.9062 0.16016 1.2383-0.69922 2.3477-1.9062 2.5078-4.5703 0.63672-8.7617-0.0625-12.098-1.5547-3.8086-1.7148-6.5391-4.5391-7.5547-7.7773-0.34766-1.1758 0.28516-2.4453 1.4922-2.793 1.1758-0.34766 2.4453 0.28516 2.793 1.4922 0.60156 2 2.4766 3.8086 5.1133 4.9844 2.6016 1.1758 5.9688 1.7148 9.6523 1.207zm56.098-28.668c-1.207-0.22266-2.0312-1.3633-1.8398-2.5703 0.22266-1.207 1.3633-2.0312 2.5703-1.8398 2.1289 0.38281 5.332 0.60156 8.2852-0.19141 1.9375-0.50781 3.7461-1.4609 5.0781-3.1094 0.76172-0.95312 2.1602-1.1094 3.1445-0.34766 0.95312 0.76172 1.1094 2.1602 0.34766 3.1445-2 2.5078-4.668 3.9062-7.4297 4.6367-3.7148 0.98438-7.5859 0.73047-10.16 0.28516z"/>
  <use x="70" y="560.476562" xlink:href="#x"/>
  <use x="70.117187" y="560.476562" xlink:href="#c"/>
  <use x="70.195312" y="560.476562" xlink:href="#a"/>
  <use x="70.300781" y="560.476562" xlink:href="#b"/>
  <use x="70.410156" y="560.476562" xlink:href="#e"/>
  <use x="70.484375" y="560.476562" xlink:href="#a"/>
  <use x="70.59375" y="560.476562" xlink:href="#i"/>
  <use x="70.761719" y="560.476562" xlink:href="#m"/>
  <use x="70.875" y="560.476562" xlink:href="#h"/>
  <use x="71.035156" y="560.476562" xlink:href="#l"/>
  <use x="71.167969" y="560.476562" xlink:href="#w"/>
  <use x="71.222656" y="560.476562" xlink:href="#a"/>
  <use x="71.332031" y="560.476562" xlink:href="#k"/>
  <use x="71.4375" y="560.476562" xlink:href="#g"/>
  <use x="71.53125" y="560.476562" xlink:href="#b"/>
  <use x="71.636719" y="560.476562" xlink:href="#f"/>
  <use x="71.75" y="560.476562" xlink:href="#i"/>
  <use x="71.863281" y="560.476562" xlink:href="#c"/>
  <use x="72" y="560.476562" xlink:href="#j"/>
  <use x="72.113281" y="560.476562" xlink:href="#b"/>
  <use x="72.222656" y="560.476562" xlink:href="#f"/>
  <use x="72.335938" y="560.476562" xlink:href="#b"/>
  <use x="72.441406" y="560.476562" xlink:href="#g"/>
  <use x="72.535156" y="560.476562" xlink:href="#d"/>
  <use x="72.644531" y="560.476562" xlink:href="#v"/>
  <use x="72.75" y="560.476562" xlink:href="#g"/>
  <use x="72.84375" y="560.476562" xlink:href="#k"/>
  <use x="72.949219" y="560.476562" xlink:href="#h"/>
  <use x="73.054688" y="560.476562" xlink:href="#u"/>
  <use x="70" y="560.636719" xlink:href="#t"/>
  <use x="70.070312" y="560.636719" xlink:href="#c"/>
  <use x="70.148438" y="560.636719" xlink:href="#d"/>
  <use x="70.257812" y="560.636719" xlink:href="#s"/>
  <use x="70.476562" y="560.636719" xlink:href="#e"/>
  <use x="70.554688" y="560.636719" xlink:href="#r"/>
  <use x="70.664062" y="560.636719" xlink:href="#a"/>
  <use x="70.828125" y="560.636719" xlink:href="#q"/>
  <use x="70.960938" y="560.636719" xlink:href="#d"/>
  <use x="71.070312" y="560.636719" xlink:href="#p"/>
  <use x="71.183594" y="560.636719" xlink:href="#f"/>
  <use x="71.351562" y="560.636719" xlink:href="#j"/>
  <use x="71.46875" y="560.636719" xlink:href="#c"/>
  <use x="71.546875" y="560.636719" xlink:href="#d"/>
  <use x="71.65625" y="560.636719" xlink:href="#o"/>
  <use x="71.710937" y="560.636719" xlink:href="#a"/>
  <use x="71.816406" y="560.636719" xlink:href="#n"/>
  <use x="71.910156" y="560.636719" xlink:href="#e"/>
 </g>
</svg>
