<?xml version="1.0" encoding="UTF-8"?>
<svg width="700pt" height="700pt" version="1.1" viewBox="0 0 700 700" xmlns="http://www.w3.org/2000/svg" xmlns:xlink="http://www.w3.org/1999/xlink">
 <defs>
  <symbol id="x" overflow="visible">
   <path d="m0.03125 0h-0.03125v-0.015625-0.015625c0.0078125-0.0078125 0.019531-0.015625 0.03125-0.015625v0.015625h-0.015625v0.015625 0.015625h0.015625v-0.015625z"/>
  </symbol>
  <symbol id="c" overflow="visible">
   <path d="m0.03125-0.015625c0-0.0078125-0.0078125-0.015625-0.015625-0.015625v0.015625 0.015625h-0.015625v-0.03125h0.015625 0.015625z"/>
  </symbol>
  <symbol id="a" overflow="visible">
   <path d="m0.03125-0.015625h-0.015625v0.015625h0.015625v-0.015625 0.015625h-0.015625-0.015625v-0.015625l0.015625-0.015625c0.0078125 0 0.015625 0.0078125 0.015625 0.015625zm0 0h-0.015625v-0.015625 0.015625z"/>
  </symbol>
  <symbol id="b" overflow="visible">
   <path d="m0.015625-0.015625v0.015625l0.015625-0.015625zm0.015625 0v0.015625h-0.015625-0.015625v-0.015625h0.015625 0.015625-0.015625v-0.015625h-0.015625v0.015625-0.015625h0.015625 0.015625v0.015625z"/>
  </symbol>
  <symbol id="e" overflow="visible">
   <path d="m0.015625-0.046875v0.015625h0.015625-0.015625v0.015625 0.015625h0.015625-0.015625-0.015625v-0.015625-0.03125z"/>
  </symbol>
  <symbol id="i" overflow="visible">
   <path d="m0.03125-0.03125v-0.015625 0.046875h-0.015625-0.015625v-0.015625l0.015625-0.015625h0.015625zm-0.015625 0.03125 0.015625-0.015625h-0.015625v-0.015625 0.015625 0.015625z"/>
  </symbol>
  <symbol id="m" overflow="visible">
   <path d="m0.015625 0h0.015625v-0.015625c0-0.0078125-0.0078125-0.015625-0.015625-0.015625v0.015625 0.015625zm0-0.03125h0.015625v0.015625 0.015625h-0.015625-0.015625v-0.046875h0.015625z"/>
  </symbol>
  <symbol id="h" overflow="visible">
   <path d="m0-0.03125h0.015625v0.015625l0.015625-0.015625-0.015625 0.03125v0.015625h-0.015625v-0.015625h0.015625z"/>
  </symbol>
  <symbol id="l" overflow="visible">
   <path d="m0.03125-0.03125h-0.015625v0.015625 0.015625h0.015625v-0.015625-0.015625zm0-0.015625v0.015625c0.0078125 0 0.015625 0.0078125 0.015625 0.015625l-0.015625 0.015625h-0.03125v-0.015625-0.015625c0.0078125-0.0078125 0.019531-0.015625 0.03125-0.015625z"/>
  </symbol>
  <symbol id="w" overflow="visible">
   <path d="m0-0.046875h0.015625v0.046875h-0.015625z"/>
  </symbol>
  <symbol id="k" overflow="visible">
   <path d="m0-0.046875h0.015625v0.03125l0.015625-0.015625-0.015625 0.015625 0.015625 0.015625-0.015625-0.015625v0.015625h-0.015625z"/>
  </symbol>
  <symbol id="g" overflow="visible">
   <path d="m0.03125-0.03125v0.015625c0-0.0078125-0.0078125-0.015625-0.015625-0.015625v0.015625h0.015625v0.015625h-0.015625-0.015625v-0.015625 0.015625h0.015625v-0.015625h-0.015625v-0.015625h0.015625 0.015625z"/>
  </symbol>
  <symbol id="f" overflow="visible">
   <path d="m0.03125-0.015625v0.015625-0.015625h-0.015625v-0.015625 0.015625 0.015625h-0.015625v-0.03125h0.015625 0.015625v0.015625z"/>
  </symbol>
  <symbol id="j" overflow="visible">
   <path d="m0-0.046875h0.015625c0.0078125 0 0.015625 0.0078125 0.015625 0.015625v0.015625h-0.015625v0.015625h-0.015625zm0.015625 0.015625v0.015625h0.015625v-0.015625h-0.015625z"/>
  </symbol>
  <symbol id="d" overflow="visible">
   <path d="m0.015625-0.03125v0.015625 0.015625l0.015625-0.015625h-0.015625v-0.015625zm0 0c0.0078125 0 0.015625 0.0078125 0.015625 0.015625v0.015625h-0.015625-0.015625v-0.015625l0.015625-0.015625z"/>
  </symbol>
  <symbol id="v" overflow="visible">
   <path d="m0-0.03125h0.015625v0.015625l0.015625-0.015625v0.03125h-0.015625z"/>
  </symbol>
  <symbol id="u" overflow="visible">
   <path d="m0-0.03125h0.015625v0.03125h-0.015625zm0-0.015625h0.015625v0.015625h-0.015625z"/>
  </symbol>
  <symbol id="t" overflow="visible">
   <path d="m0.03125-0.046875v0.015625h-0.015625 0.015625-0.015625v0.03125h-0.015625v-0.03125l0.015625-0.015625z"/>
  </symbol>
  <symbol id="s" overflow="visible">
   <path d="m0.03125-0.03125h0.015625v0.015625 0.015625-0.015625-0.015625c-0.011719 0-0.015625 0.0078125-0.015625 0.015625v0.015625-0.015625h-0.015625v-0.015625 0.015625 0.015625h-0.015625v-0.03125h0.015625 0.015625z"/>
  </symbol>
  <symbol id="r" overflow="visible">
   <path d="m0.03125-0.015625v0.015625-0.015625h-0.015625v-0.015625 0.015625 0.015625h-0.015625v-0.046875h0.015625v0.015625h0.015625v0.015625z"/>
  </symbol>
  <symbol id="q" overflow="visible">
   <path d="m0-0.046875h0.015625l0.015625 0.03125v-0.03125h0.015625v0.046875h-0.015625l-0.015625-0.03125v0.03125h-0.015625z"/>
  </symbol>
  <symbol id="p" overflow="visible">
   <path d="m0-0.015625v-0.015625h0.015625v0.015625 0.015625l0.015625-0.015625v-0.015625 0.03125h-0.015625-0.015625v-0.015625z"/>
  </symbol>
  <symbol id="o" overflow="visible">
   <path d="m0-0.03125h0.015625v0.03125c0 0.0078125-0.0078125 0.015625-0.015625 0.015625zm0-0.015625h0.015625v0.015625h-0.015625z"/>
  </symbol>
  <symbol id="n" overflow="visible">
   <path d="m0.03125-0.03125v0.015625c0-0.0078125-0.0078125-0.015625-0.015625-0.015625v0.015625 0.015625h0.015625v-0.015625 0.015625h-0.015625-0.015625v-0.015625l0.015625-0.015625h0.015625z"/>
  </symbol>
 </defs>
 <g>
  <path d="m347.75 384.8c-1.6953 3.1758-2.3438 6.3086-1.3555 9.8164 1.8477 6.5703 5.6523 13.195 10.496 19.738 4.9414 6.6797 10.973 13.281 17.133 19.672 1.4062 1.457 2.9336 3.0586 4.6172 4.8203 10.93 11.441 28.297 29.617 39.785 38.344 1.2031 0.91406 10.363 7.1914 11.473 7.7344 9.0273 4.4258 19.293 2.0273 26.508-5.8594 5.0547-5.5273 8.043-13.656 4.3203-20.797-1.9297-3.6992-4.8164-5.4961-7.8438-8.0195-5.3125-4.4219-12.574-10.953-20.465-18.266-13.695-12.688-29.168-27.598-39.633-37.898-5.8008-5.7109-16.723-15.543-24.324-18.512-7.5156-2.9375-14.922-1.6094-20.711 9.2305zm-177.73-77.375c-0.53906-2.1836 2.7852-3 3.3203-0.81641 1.3945 5.6406 5.0039 8.918 10.277 11.098 2.0781 0.85547 0.78125 4.0156-1.3008 3.1602-6.293-2.6016-10.641-6.7344-12.301-13.445zm126.58 190.9c-1.0938-1.9648 1.8945-3.625 2.9883-1.6602 2.4922 4.4688 6.832 7.2109 11.688 8.5273 2.1758 0.58203 1.293 3.8906-0.88281 3.3086-5.7656-1.5625-10.836-4.8789-13.789-10.176zm-53.559-47.84c-0.28906-2.2305 3.0977-2.6719 3.3906-0.44141 1.0859 8.332 7.2852 13.844 14.336 17.602 1.9805 1.0586 0.375 4.0703-1.6094 3.0156-8.082-4.3125-14.879-10.668-16.117-20.176zm-42.207-51.172c-0.34375-2.2188 3.0312-2.7422 3.375-0.52344 0.86719 5.5898 6.9688 12.32 12.293 14.191 2.125 0.73828 0.99609 3.9688-1.125 3.2266-6.5117-2.2852-13.48-10.055-14.543-16.898zm277.71-36.402c-1.8477 1.2852-3.8047-1.5273-1.957-2.8125 3.3047-2.2969 5.4023-5.1055 6.5352-8.9766 0.63281-2.1602 3.9141-1.1953 3.2812 0.96484-1.3477 4.5938-3.9375 8.0938-7.8633 10.824zm-42.312 39.742c-2.043 0.94141-3.4766-2.1641-1.4336-3.1094 3.7773-1.7539 7.6445-5.082 8.8047-9.2148 0.60938-2.168 3.9023-1.2422 3.2969 0.92578-1.4414 5.1289-5.9531 9.2148-10.668 11.398zm-36.059 39.477c-0.92969 0.17969-1.8281-0.42578-2.0078-1.3516-0.17969-0.92969 0.42578-1.8281 1.3516-2.0078 1.7578-0.34766 3.8047-1.5156 5.3984-3.1953 1.3281-1.3984 2.3086-3.1328 2.4688-5 0.078125-0.94141 0.90625-1.6445 1.8477-1.5664s1.6445 0.90625 1.5664 1.8477c-0.23438 2.7148-1.582 5.1562-3.4062 7.0781-2.0742 2.1875-4.8164 3.7227-7.2188 4.1992zm-16.398 46.984c-2.2461 0.0625-2.3398-3.3555-0.09375-3.4141 3.1992-0.089844 7.8945-1.7773 9.5625-4.6992 1.1094-1.957 4.082-0.26953 2.9727 1.6875-2.2891 4.0156-7.9961 6.3047-12.441 6.4258zm-25.602-30.852c-0.70312-2.1406 2.5508-3.2109 3.2539-1.0703 1.6484 4.9883 4.9922 10.621 10.008 12.77 4.8281 2.0703 9.707 0.17188 13.703-2.7266 1.8242-1.3203 3.832 1.4531 2.0078 2.7734-5.0195 3.6406-11.031 5.6797-17.051 3.1016-5.9883-2.5664-9.9492-8.8672-11.926-14.848zm76.246-124.08c-1.293-1.832 1.4922-3.8008 2.7852-1.9688 8.707 12.301 24.195 20.742 31.902 2.0547 0.85547-2.0781 4.0156-0.78125 3.1602 1.3008-8.832 21.41-27.516 13.219-37.852-1.3867zm-53.746 28.25c-1.418-1.7422 1.2344-3.8984 2.6523-2.1562 11.293 13.844 29.996 21.52 38.547 0.92969 0.86328-2.0781 4.0234-0.76562 3.1602 1.3125-9.5742 23.059-31.27 15.961-44.359-0.085937zm-27.848 33.062c-1.0312-2 2.0117-3.5664 3.0391-1.5664 2.168 4.207 6.0352 9.6445 10.707 12.742 8.0352 5.3242 16.016 2.2852 18.961-7.0039 0.67969-2.1484 3.9453-1.1172 3.2695 1.0312-3.5781 11.285-13.863 15.348-23.758 9.0547-5.3242-3.3867-9.6445-9.2656-12.223-14.258zm-89.336-250.77c-28.672-19.648-59.172-47.59-83.234-71.34-2.6719-2.6289 1.3242-6.6914 3.9961-4.0625 24.441 24.129 56.215 53.262 85.348 72.672 4.7695 3.1797 3.4102 3.0469 7.2656-1.2852 9.5312-10.703 19.52-21.234 29.43-30.77 31.148-29.957 68.5-45.289 96.68-75.988 2.5391-2.7617 6.7383 1.1016 4.1953 3.8633-28.512 31.062-65.691 46.195-96.926 76.234-15.719 15.117-31.691 32.852-45.711 49.785-29.289 35.379-57.336 74.707-79.727 106.1-4.6797 6.5625-9.1016 12.766-13.711 19.164-3.4297 4.7617-6.0508 9.8711-7.5039 15.602-1.3281 5.2383-1.6055 10.633-1.2266 16.496 1.2383 19.148 2.668 32.973 6.5781 43.426 3.1211 8.3398 7.9141 14.629 15.629 19.977 4.3867 3.0391 3.2383 2.6367 4.7227-1.9062 2.6523-8.125 7.2227-16.75 13.418-25.691 3.2539-4.6914 2.8164-3.418 2.2812-9.2422-1.1211-12.227-2.0117-21.891 13.812-41.07 10.246-12.418 24.859-23.367 32.297-37.453 2.4961-4.7227 2.5039-5.5508 2.1133-10.844-0.48828-6.6094-1.957-12.949-4.1953-18.824-1.3359-3.5078 4-5.543 5.3359-2.0312 4.3281 11.348 5.7266 23.492 4.0664 35.477-2.9922 21.621-15.008 35.668-26.766 52.922-7.3711 10.809-14.375 21.086-19.984 28.445-9.582 12.574-15.98 24.461-18.344 35.078-5.3398 24.012 11.863 36.301 32.383 41.992 5.1055 1.4141 4.2031 2.0508 6.1914-2.1797 0.43359-0.92578 0.88281-1.8242 1.3398-2.6992 6.8984-13.164 16.023-26.543 25.195-39.988 10.43-15.293 32.746-39.996 25.914-59.047-1.2617-3.5234 4.0938-5.4453 5.3594-1.918 7.9375 22.117-14.562 46.594-26.559 64.18-9.1055 13.348-18.164 26.633-24.859 39.41-2.7383 5.2266-5 11.246-5.6211 17.133-2.7266 25.84 23.785 37.07 44.883 36.887 4.2656-0.035157 5.418 0.76953 6.6367-3.1445 4.7461-15.273 17.105-32.883 29.141-50.031 16.648-23.723 32.652-46.527 25.578-58.324-1.9219-3.2109 2.9688-6.1367 4.8906-2.9258 0.65234 1.0898 1.168 2.2266 1.5547 3.4102 1.7344 5.3086-0.48047 5.0898 3.9805 1.0273 4.9688-4.5234 10.523-5.5742 16.266-4.4414 6.2617 1.2383 4.6641 2.8477 3.2031-3.8359-6.5938-30.176 21.344-48.492 48.59-33.211 5.3555 3.0039 3.2734 2.7656 3.582-2.6289 0.32422-5.6367 2.7227-11.16 6.3477-15.438 10.641-12.555 25.09-10.84 38.496-3.5312 8.8711 4.8359 17.395 11.688 25.234 16.406 1.9336 1.1641 3.7891 2.2812 5.5781 3.3828 4.457 2.7461 3.2383 3.0664 8.1016 0.83984 10.371-4.75 17.719-11.035 23.84-20.773 1.9961-3.168 6.8164-0.13281 4.8242 3.0352-5.668 9.0195-12.633 15.715-21.949 20.762-6.5469 3.5469-5.8906 1.5508-0.085937 6.7188 9.2109 8.1992 16.535 19.059 14.805 31.879-1.6641 12.352-10.969 24.883-22.957 28.984-5.5391 1.8945-4.9531-0.30859-2.0898 5.3867 3.3164 6.5898 4.9453 13.914 4.0391 22.395-0.77734 7.293-4.4805 14.164-9.7344 19.301-3.8477 3.7617-6.168 3.3945 1.2812 5.7422 25.645 8.0859 45.258-25.227 59.754-43.348 26.496-33.113 43.797-64.625 46.676-110.09 2.0117-31.785-1.9492-66.051-5.4023-97.863-4-36.867-7-64.492 3.2539-102.26 0.98437-3.625 6.4961-2.1328 5.5156 1.4961-9.9805 36.75-7.0312 63.914-3.0977 100.16 3.4883 32.125 7.457 66.723 5.4258 98.824-2.9805 46.867-20.863 79.578-48.156 113.61-17.715 22.09-39.012 57.887-70.832 42.793-5.8398-2.7695-2.7227-2.3984-8.7852-0.76953-3.4922 0.9375-7.2148 1.2773-11.066 0.86328-5.0508-0.53906-3.0039-1.1758-2.1484 4.0156 1.2812 7.7578-2.0742 15.609-7.2461 21.266-9.0469 9.8672-22.109 12.695-33.445 7.0156-2.2695-1.1367-5.3633-3.2344-8.1016-5.2031-4.5312-3.2578-3.1016-3.3906-4.4961 1.4453-5.4805 19.02-20.594 30.676-38.828 29.746-2.2969-0.11719-4.6484-0.43359-7.0312-0.96094-4.2969-0.94922-3.0312-2.0117-6.0469 0.78906-2.5547 2.375-6.2578 4.5078-10.699 6.2422-20.91 8.168-59.012 8.6719-68.762-16.293-1.3242-3.3906-1.7227-7.1133-1.6094-10.805 0.20703-6.5195 2.3906-6.0078-4.0195-5.9805-24.719 0.10547-53.676-13.566-50.555-43.137 0.75391-7.1367 3.7109-7.0352-2.5195-8.8125-19.277-5.5039-38.133-16.656-37.852-39.301 0.066406-5.2812 1.5742-3.9883-2.8086-6.7266-10.199-6.3672-16.316-13.918-20.207-24.309-4.1719-11.148-5.668-25.406-6.9375-45.055-0.41406-6.4258-0.10156-12.383 1.3828-18.234 1.918-7.5625 4.707-8.5938 0.73047-13.414-19.664-23.812-44.184-44.574-67.125-63.16-2.9023-2.3594 0.69141-6.7812 3.5938-4.4219 23.055 18.68 48.082 40.305 67.203 63.086 2.6875 3.1992 1.7891 3.4609 4.0156 0.36719 3.9375-5.4688 8.6758-12.113 13.688-19.141 22.477-31.516 50.629-71 79.973-106.44 1.4688-1.7734 3.0117-3.5117 4.4648-5.3438 4.5234-5.6914 6.3906-4.9805-1.1211-10.125zm224.64 186.71c-6.9141-4.1602-15.215-10.812-23.746-15.566-11.082-6.1758-23.527-9.3477-32.707 1.4844-4.4961 5.3047-6.6602 13.266-3.5977 19.488 1.7422 3.5352 4.5781 5.1289 7.5312 7.543 15.648 12.801 42.484 34.52 55.836 48.898 3.3242 3.5781 2.7969 4.5117 8.2188 3.1914 10.781-2.625 19.422-14.211 20.855-24.852 1.4648-11.363-6.1289-20.977-14.625-28.156-5.6836-4.8047-11.375-8.1953-17.766-12.035zm-91.359 58.578c10.57 10.406 26.047 25.324 39.496 37.789 7.0938 6.5742 13.66 12.496 18.695 16.77 4.9453 4.1953 8.8555 6.6484 15.625 7.3711 3.582 0.38281 7.0312-0.035157 10.223-1.0703 3.25-1.0547 6.25-2.75 8.8828-4.9258 5.25-4.3438 9.0703-10.641 9.7891-17.395 1.0312-9.6602-4.4492-20.281-12.91-30.75-15.426-19.09-40.758-37.672-54.586-48.984-5.5586-4.5469-11.316-8.6875-17.391-12.094-23.086-12.945-46.016 1.8281-40.145 27.359 0.40625 1.7617 0.96875 3.4688 1.6953 5.0859 3.1875 7.0977 14.441 14.77 20.617 20.852zm-55.68 6.8125c-5.3398 11.195-14.129 23.719-23.094 36.496-12.594 17.941-25.547 36.402-29.168 51.32-1.4023 5.7773-2.5586 13.266-0.33594 18.957 8.4336 21.594 43.645 19.98 61.371 13.055 3.2461-1.2695 5.9531-2.6797 7.8672-4.1406 3.4844-2.6602 2.6602-2.5586 1.6211-5.7422-0.87891-2.6914-1.2266-5.8477-1.0859-8.8672 0.10547-2.2969 0.49609-4.5508 1.1445-6.4961 1.3203-3.957 1.6562-4.3242-0.32031-7.7461-3.5234-6.0977-6.1719-10.988-9.043-17.086-5.6602-12.035-3.3672-27.453 9.4531-33.484 4.3164-2.0312 5.4258-0.30469 2.1094-4.0195-3.3203-3.7188-6.4727-7.5-9.3086-11.328-5.0664-6.8477-9.1016-13.844-11.215-20.91zm20.824 41.418c-9.8945 4.6562-10.969 16.859-6.707 25.918 5.1406 10.926 11.598 21.586 17.867 31.91 1.9375 3.1953-2.9297 6.1445-4.8672 2.9453-0.53516-0.88281-1.0703-1.7695-1.6094-2.6523-2.0547-3.375-2.4453-2.8125-2.6406 1.7773-0.10938 2.3711 0.15234 4.8125 0.82031 6.8555 1.6094 4.9141 6.6406 4.9883 11.254 5.2227 15.734 0.79688 28.387-9.4648 33.043-25.637 1.6953-5.8906 1.9023-5.9922-2.125-9.5703-10.93-9.7188-23.715-23.102-32.457-32.25-4.8516-5.0781-5.1914-8-12.586-4.5195zm-147.89-96.773c3.9961-5.6602 8.3945-12.109 12.93-18.766 7.2344-10.613 16.586-22.32 21.398-34.109 4.1055-10.055 4.168-9.8438-2.3047-2.5117-7.3477 8.3203-15.754 15.625-22.836 24.207-11.664 14.137-13.312 22.488-12.98 30.996 0.26562 6.8008 0.375 5.0273 3.793 0.18359z"/>
  <use x="70" y="560.167969" xlink:href="#x"/>
  <use x="70.042969" y="560.167969" xlink:href="#c"/>
  <use x="70.070312" y="560.167969" xlink:href="#a"/>
  <use x="70.105469" y="560.167969" xlink:href="#b"/>
  <use x="70.144531" y="560.167969" xlink:href="#e"/>
  <use x="70.171875" y="560.167969" xlink:href="#a"/>
  <use x="70.210938" y="560.167969" xlink:href="#i"/>
  <use x="70.269531" y="560.167969" xlink:href="#m"/>
  <use x="70.308594" y="560.167969" xlink:href="#h"/>
  <use x="70.363281" y="560.167969" xlink:href="#l"/>
  <use x="70.414063" y="560.167969" xlink:href="#w"/>
  <use x="70.433594" y="560.167969" xlink:href="#a"/>
  <use x="70.46875" y="560.167969" xlink:href="#k"/>
  <use x="70.507812" y="560.167969" xlink:href="#g"/>
  <use x="70.539062" y="560.167969" xlink:href="#b"/>
  <use x="70.578125" y="560.167969" xlink:href="#f"/>
  <use x="70.617188" y="560.167969" xlink:href="#i"/>
  <use x="70.65625" y="560.167969" xlink:href="#c"/>
  <use x="70.707031" y="560.167969" xlink:href="#j"/>
  <use x="70.746094" y="560.167969" xlink:href="#b"/>
  <use x="70.785156" y="560.167969" xlink:href="#f"/>
  <use x="70.824219" y="560.167969" xlink:href="#b"/>
  <use x="70.863281" y="560.167969" xlink:href="#g"/>
  <use x="70.894531" y="560.167969" xlink:href="#d"/>
  <use x="70.933594" y="560.167969" xlink:href="#v"/>
  <use x="70.96875" y="560.167969" xlink:href="#g"/>
  <use x="71.003906" y="560.167969" xlink:href="#k"/>
  <use x="71.039062" y="560.167969" xlink:href="#h"/>
  <use x="71.078125" y="560.167969" xlink:href="#u"/>
  <use x="70" y="560.222656" xlink:href="#t"/>
  <use x="70.023438" y="560.222656" xlink:href="#c"/>
  <use x="70.050781" y="560.222656" xlink:href="#d"/>
  <use x="70.089844" y="560.222656" xlink:href="#s"/>
  <use x="70.167969" y="560.222656" xlink:href="#e"/>
  <use x="70.195313" y="560.222656" xlink:href="#r"/>
  <use x="70.234375" y="560.222656" xlink:href="#a"/>
  <use x="70.292969" y="560.222656" xlink:href="#q"/>
  <use x="70.339844" y="560.222656" xlink:href="#d"/>
  <use x="70.378906" y="560.222656" xlink:href="#p"/>
  <use x="70.417969" y="560.222656" xlink:href="#f"/>
  <use x="70.476562" y="560.222656" xlink:href="#j"/>
  <use x="70.519531" y="560.222656" xlink:href="#c"/>
  <use x="70.546875" y="560.222656" xlink:href="#d"/>
  <use x="70.585938" y="560.222656" xlink:href="#o"/>
  <use x="70.601562" y="560.222656" xlink:href="#a"/>
  <use x="70.640625" y="560.222656" xlink:href="#n"/>
  <use x="70.675781" y="560.222656" xlink:href="#e"/>
 </g>
</svg>
